<svg width="361" height="84" viewBox="0 0 361 84" fill="none" xmlns="http://www.w3.org/2000/svg">
<path d="M96.7039 22.16C97.6959 22.352 98.4319 22.688 98.9119 23.168C99.4239 23.648 99.6799 24.208 99.6799 24.848C99.6799 25.904 99.3759 26.672 98.7679 27.152C98.1919 27.632 97.2639 27.824 95.9839 27.728C93.1039 27.504 90.8479 27.36 89.2159 27.296C87.6159 27.2 85.5039 27.136 82.8799 27.104C81.6959 32.992 80.6079 38.912 79.6159 44.864C79.2639 47.04 78.8959 49.568 78.5119 52.448C78.1279 55.296 77.8719 57.6 77.7439 59.36C77.6799 60.288 77.2959 61.008 76.5919 61.52C75.8879 62 75.0399 62.24 74.0479 62.24C72.9919 62.24 72.1759 61.984 71.5999 61.472C71.0239 60.96 70.7359 60.288 70.7359 59.456C70.7359 58.688 70.8479 57.424 71.0719 55.664C71.3279 53.872 71.6159 52 71.9359 50.048C72.2879 48.096 72.5599 46.4 72.7519 44.96C73.1039 42.528 73.5039 40.112 73.9519 37.712C74.3999 35.312 74.8479 33.04 75.2959 30.896C75.3919 30.416 75.5039 29.872 75.6319 29.264C75.7599 28.624 75.9039 27.92 76.0639 27.152C72.9279 27.248 70.4639 27.504 68.6719 27.92C66.8799 28.336 65.5999 28.928 64.8319 29.696C64.0959 30.432 63.7279 31.392 63.7279 32.576C63.7279 33.664 64.0479 34.704 64.6879 35.696C64.8159 35.92 64.8799 36.16 64.8799 36.416C64.8799 37.024 64.5119 37.6 63.7759 38.144C63.0719 38.656 62.3359 38.912 61.5679 38.912C61.0239 38.912 60.5759 38.752 60.2239 38.432C59.5839 37.888 59.0559 37.12 58.6399 36.128C58.2239 35.104 58.0159 33.952 58.0159 32.672C58.0159 29.952 58.8959 27.776 60.6559 26.144C62.4479 24.48 65.1519 23.264 68.7679 22.496C72.4159 21.728 77.0879 21.344 82.7839 21.344C86.3039 21.344 89.1039 21.408 91.1839 21.536C93.2959 21.664 95.1359 21.872 96.7039 22.16ZM93.4658 62.24C91.4818 62.24 89.8978 61.52 88.7138 60.08C87.5298 58.64 86.9378 56.752 86.9378 54.416C86.9378 51.856 87.5298 49.44 88.7138 47.168C89.8978 44.864 91.4658 43.024 93.4178 41.648C95.4018 40.24 97.4978 39.536 99.7058 39.536C100.41 39.536 100.874 39.68 101.098 39.968C101.354 40.224 101.562 40.704 101.722 41.408C102.394 41.28 103.098 41.216 103.834 41.216C105.402 41.216 106.186 41.776 106.186 42.896C106.186 43.568 105.946 45.168 105.466 47.696C104.73 51.376 104.362 53.936 104.362 55.376C104.362 55.856 104.474 56.24 104.698 56.528C104.954 56.816 105.274 56.96 105.658 56.96C106.266 56.96 107.002 56.576 107.866 55.808C108.73 55.008 109.898 53.728 111.37 51.968C111.754 51.52 112.186 51.296 112.666 51.296C113.082 51.296 113.402 51.488 113.626 51.872C113.882 52.256 114.01 52.784 114.01 53.456C114.01 54.736 113.706 55.728 113.098 56.432C111.786 58.064 110.394 59.44 108.922 60.56C107.45 61.68 106.026 62.24 104.65 62.24C103.594 62.24 102.618 61.888 101.722 61.184C100.858 60.448 100.202 59.456 99.7538 58.208C98.0898 60.896 95.9938 62.24 93.4658 62.24ZM95.1938 57.392C95.8978 57.392 96.5698 56.976 97.2098 56.144C97.8498 55.312 98.3138 54.208 98.6018 52.832L100.378 44C99.0338 44.032 97.7858 44.544 96.6338 45.536C95.5138 46.496 94.6178 47.776 93.9458 49.376C93.2738 50.976 92.9378 52.672 92.9378 54.464C92.9378 55.456 93.1298 56.192 93.5138 56.672C93.9298 57.152 94.4898 57.392 95.1938 57.392ZM119.037 63.296C117.373 63.296 116.093 62.912 115.197 62.144C114.333 61.376 113.901 60.512 113.901 59.552C113.901 58.72 114.205 58 114.813 57.392C115.421 56.784 116.317 56.48 117.501 56.48C117.917 56.48 118.397 56.528 118.941 56.624C119.517 56.688 119.949 56.736 120.237 56.768C120.205 55.936 120.013 55.152 119.661 54.416C119.341 53.68 118.925 52.976 118.413 52.304C117.901 51.6 117.421 50.992 116.973 50.48C115.981 52.368 114.989 53.936 113.997 55.184C113.037 56.432 111.981 57.616 110.829 58.736C110.253 59.312 109.645 59.6 109.005 59.6C108.493 59.6 108.077 59.424 107.757 59.072C107.437 58.688 107.277 58.224 107.277 57.68C107.277 57.04 107.501 56.448 107.949 55.904L108.573 55.136C110.333 52.96 111.661 51.168 112.557 49.76C113.101 48.832 113.741 47.6 114.477 46.064C115.213 44.496 115.933 42.88 116.637 41.216C117.245 39.808 118.509 39.104 120.429 39.104C121.325 39.104 121.949 39.184 122.301 39.344C122.653 39.504 122.829 39.76 122.829 40.112C122.829 40.304 122.765 40.608 122.637 41.024C122.509 41.44 122.333 41.856 122.109 42.272C121.533 43.424 121.245 44.4 121.245 45.2C121.245 45.68 121.405 46.208 121.725 46.784C122.077 47.36 122.605 48.08 123.309 48.944C124.333 50.288 125.101 51.44 125.613 52.4C126.157 53.328 126.429 54.352 126.429 55.472C126.429 55.792 126.397 56.24 126.333 56.816C127.901 56.208 129.741 54.592 131.853 51.968C132.237 51.52 132.669 51.296 133.149 51.296C133.565 51.296 133.885 51.488 134.109 51.872C134.365 52.256 134.493 52.784 134.493 53.456C134.493 54.672 134.189 55.664 133.581 56.432C131.981 58.416 130.445 59.776 128.973 60.512C127.533 61.216 125.741 61.6 123.597 61.664C122.317 62.752 120.797 63.296 119.037 63.296ZM150.993 57.008C152.305 57.264 152.961 57.984 152.961 59.168C152.961 59.968 152.593 60.688 151.857 61.328C151.153 61.936 150.129 62.24 148.785 62.24C146.481 62.24 144.593 61.536 143.121 60.128C141.681 58.688 140.961 56.816 140.961 54.512C140.961 53.264 141.601 52.368 142.881 51.824C144.289 51.216 145.297 50.576 145.905 49.904C146.513 49.2 146.817 48.352 146.817 47.36C146.817 46.784 146.689 46.352 146.433 46.064C146.209 45.776 145.921 45.632 145.569 45.632C144.705 45.632 143.745 46.256 142.689 47.504C141.665 48.752 140.705 50.368 139.809 52.352C138.913 54.304 138.209 56.32 137.697 58.4C137.345 59.904 136.929 60.928 136.449 61.472C136.001 61.984 135.281 62.24 134.289 62.24C133.297 62.24 132.561 61.888 132.081 61.184C131.633 60.448 131.329 59.328 131.169 57.824C131.009 56.32 130.929 54.112 130.929 51.2C130.929 46.272 131.425 41.136 132.417 35.792C133.441 30.448 134.929 25.968 136.881 22.352C138.865 18.704 141.233 16.88 143.985 16.88C145.457 16.88 146.641 17.52 147.537 18.8C148.465 20.048 148.929 21.68 148.929 23.696C148.929 26.928 147.985 30.288 146.097 33.776C144.209 37.232 141.137 41.28 136.881 45.92C136.785 47.584 136.737 49.296 136.737 51.056C138.273 47.056 140.033 44.16 142.017 42.368C144.001 40.544 145.857 39.632 147.585 39.632C149.185 39.632 150.465 40.176 151.425 41.264C152.417 42.352 152.913 43.696 152.913 45.296C152.913 47.056 152.465 48.672 151.569 50.144C150.673 51.616 149.137 52.928 146.961 54.08C147.153 55.04 147.537 55.712 148.113 56.096C148.721 56.448 149.681 56.752 150.993 57.008ZM142.977 21.632C142.401 21.632 141.761 22.464 141.057 24.128C140.353 25.76 139.665 27.984 138.993 30.8C138.353 33.584 137.825 36.624 137.409 39.92C139.393 37.584 141.025 35.04 142.305 32.288C143.617 29.536 144.273 27.04 144.273 24.8C144.273 23.776 144.161 22.992 143.937 22.448C143.713 21.904 143.393 21.632 142.977 21.632ZM177.159 62.24C175.975 62.24 175.127 61.984 174.615 61.472C174.103 60.928 173.847 59.92 173.847 58.448C173.847 57.456 173.943 56.192 174.135 54.656C174.359 53.088 174.711 50.944 175.191 48.224C176.023 43.2 176.679 38.848 177.159 35.168C177.447 32.864 177.591 30.944 177.591 29.408C177.591 27.968 177.063 27.248 176.007 27.248C175.175 27.248 174.167 27.68 172.983 28.544C171.831 29.376 170.551 30.72 169.143 32.576C168.695 33.184 168.199 33.488 167.655 33.488C167.207 33.488 166.807 33.28 166.455 32.864C166.135 32.416 165.975 31.92 165.975 31.376C165.975 30.864 166.071 30.352 166.263 29.84C166.487 29.296 166.839 28.688 167.319 28.016C168.855 25.872 170.567 24.224 172.455 23.072C174.343 21.888 176.231 21.296 178.119 21.296C179.879 21.296 181.223 21.856 182.151 22.976C183.111 24.096 183.591 25.728 183.591 27.872C183.591 28.736 183.511 29.76 183.351 30.944C183.191 32.096 183.047 33.04 182.919 33.776C182.791 34.512 182.695 35.024 182.631 35.312C184.455 30.096 186.503 26.464 188.775 24.416C191.047 22.336 193.543 21.296 196.263 21.296C198.343 21.296 199.975 22.032 201.159 23.504C202.375 24.976 202.983 27.056 202.983 29.744C202.983 30.8 202.839 32.112 202.551 33.68C204.151 29.264 206.023 26.096 208.167 24.176C210.311 22.256 212.775 21.296 215.559 21.296C217.799 21.296 219.511 22.016 220.695 23.456C221.911 24.896 222.519 26.912 222.519 29.504C222.519 30.912 222.311 32.624 221.895 34.64L218.967 48.368C218.647 49.968 218.487 51.344 218.487 52.496C218.487 53.84 218.791 54.848 219.399 55.52C220.039 56.192 220.919 56.528 222.039 56.528C223.095 56.528 224.119 56.176 225.111 55.472C226.135 54.768 227.335 53.6 228.711 51.968C229.095 51.52 229.527 51.296 230.007 51.296C230.423 51.296 230.743 51.488 230.967 51.872C231.223 52.256 231.351 52.784 231.351 53.456C231.351 54.704 231.047 55.696 230.439 56.432C228.775 58.448 227.127 59.92 225.495 60.848C223.863 61.776 222.151 62.24 220.359 62.24C217.639 62.24 215.511 61.44 213.975 59.84C212.439 58.208 211.671 56.032 211.671 53.312C211.671 51.424 212.055 48.688 212.823 45.104L214.743 36.32C214.807 36.032 214.919 35.52 215.079 34.784C215.239 34.048 215.367 33.36 215.463 32.72C215.559 32.048 215.607 31.392 215.607 30.752C215.607 29.632 215.383 28.8 214.935 28.256C214.519 27.68 213.911 27.392 213.111 27.392C211.607 27.392 210.023 28.368 208.359 30.32C206.727 32.24 205.159 35.44 203.655 39.92C202.183 44.4 200.983 50.224 200.055 57.392C199.831 59.312 199.431 60.608 198.855 61.28C198.311 61.92 197.415 62.24 196.167 62.24C195.079 62.24 194.279 61.984 193.767 61.472C193.287 60.96 193.047 60 193.047 58.592C193.047 57.28 193.223 55.568 193.575 53.456C193.927 51.312 194.375 48.8 194.919 45.92C196.391 38.176 197.127 33.184 197.127 30.944C197.127 29.728 196.887 28.832 196.407 28.256C195.959 27.68 195.271 27.392 194.343 27.392C192.775 27.392 191.159 28.288 189.495 30.08C187.831 31.84 186.199 34.992 184.599 39.536C183.031 44.048 181.719 50.16 180.663 57.872C180.439 59.504 180.103 60.64 179.655 61.28C179.239 61.92 178.407 62.24 177.159 62.24ZM233.388 62.24C231.404 62.24 229.82 61.52 228.636 60.08C227.452 58.64 226.86 56.752 226.86 54.416C226.86 51.856 227.452 49.44 228.636 47.168C229.82 44.864 231.388 43.024 233.34 41.648C235.324 40.24 237.42 39.536 239.628 39.536C240.332 39.536 240.796 39.68 241.02 39.968C241.276 40.224 241.484 40.704 241.644 41.408C242.316 41.28 243.02 41.216 243.756 41.216C245.324 41.216 246.108 41.776 246.108 42.896C246.108 43.568 245.868 45.168 245.388 47.696C244.652 51.376 244.284 53.936 244.284 55.376C244.284 55.856 244.396 56.24 244.62 56.528C244.876 56.816 245.196 56.96 245.58 56.96C246.188 56.96 246.924 56.576 247.788 55.808C248.652 55.008 249.82 53.728 251.292 51.968C251.676 51.52 252.108 51.296 252.588 51.296C253.004 51.296 253.324 51.488 253.548 51.872C253.804 52.256 253.932 52.784 253.932 53.456C253.932 54.736 253.628 55.728 253.02 56.432C251.708 58.064 250.316 59.44 248.844 60.56C247.372 61.68 245.948 62.24 244.572 62.24C243.516 62.24 242.54 61.888 241.644 61.184C240.78 60.448 240.124 59.456 239.676 58.208C238.012 60.896 235.916 62.24 233.388 62.24ZM235.116 57.392C235.82 57.392 236.492 56.976 237.132 56.144C237.772 55.312 238.236 54.208 238.524 52.832L240.3 44C238.956 44.032 237.708 44.544 236.556 45.536C235.436 46.496 234.54 47.776 233.868 49.376C233.196 50.976 232.86 52.672 232.86 54.464C232.86 55.456 233.052 56.192 233.436 56.672C233.852 57.152 234.412 57.392 235.116 57.392ZM253.439 62.24C252.223 62.24 251.359 61.6 250.847 60.32C250.367 59.04 250.127 56.992 250.127 54.176C250.127 50.016 250.719 46.064 251.903 42.32C252.191 41.392 252.655 40.72 253.295 40.304C253.967 39.856 254.895 39.632 256.079 39.632C256.719 39.632 257.167 39.712 257.423 39.872C257.679 40.032 257.807 40.336 257.807 40.784C257.807 41.296 257.567 42.448 257.087 44.24C256.767 45.52 256.511 46.64 256.319 47.6C256.127 48.56 255.967 49.744 255.839 51.152C256.895 48.4 258.079 46.16 259.391 44.432C260.703 42.704 261.983 41.472 263.231 40.736C264.511 40 265.679 39.632 266.735 39.632C268.815 39.632 269.855 40.672 269.855 42.752C269.855 44 269.503 46.256 268.799 49.52C268.191 52.304 267.887 54.144 267.887 55.04C267.887 56.32 268.351 56.96 269.279 56.96C269.919 56.96 270.671 56.576 271.535 55.808C272.431 55.008 273.615 53.728 275.087 51.968C275.471 51.52 275.903 51.296 276.383 51.296C276.799 51.296 277.119 51.488 277.343 51.872C277.599 52.256 277.727 52.784 277.727 53.456C277.727 54.736 277.423 55.728 276.815 56.432C275.439 58.128 273.951 59.52 272.351 60.608C270.783 61.696 268.991 62.24 266.975 62.24C265.343 62.24 264.111 61.776 263.279 60.848C262.447 59.888 262.031 58.512 262.031 56.72C262.031 55.824 262.255 54.224 262.703 51.92C263.119 49.904 263.327 48.512 263.327 47.744C263.327 47.232 263.151 46.976 262.799 46.976C262.383 46.976 261.791 47.52 261.023 48.608C260.287 49.664 259.519 51.072 258.719 52.832C257.951 54.592 257.327 56.448 256.847 58.4C256.495 59.904 256.079 60.928 255.599 61.472C255.151 61.984 254.431 62.24 253.439 62.24ZM279.747 62.24C277.763 62.24 276.179 61.52 274.995 60.08C273.811 58.64 273.219 56.752 273.219 54.416C273.219 51.856 273.811 49.44 274.995 47.168C276.179 44.864 277.747 43.024 279.699 41.648C281.683 40.24 283.779 39.536 285.987 39.536C286.691 39.536 287.155 39.68 287.379 39.968C287.635 40.224 287.843 40.704 288.003 41.408C288.675 41.28 289.379 41.216 290.115 41.216C291.683 41.216 292.467 41.776 292.467 42.896C292.467 43.568 292.227 45.168 291.747 47.696C291.011 51.376 290.643 53.936 290.643 55.376C290.643 55.856 290.755 56.24 290.979 56.528C291.235 56.816 291.555 56.96 291.939 56.96C292.547 56.96 293.283 56.576 294.147 55.808C295.011 55.008 296.179 53.728 297.651 51.968C298.035 51.52 298.467 51.296 298.947 51.296C299.363 51.296 299.683 51.488 299.907 51.872C300.163 52.256 300.291 52.784 300.291 53.456C300.291 54.736 299.987 55.728 299.379 56.432C298.067 58.064 296.675 59.44 295.203 60.56C293.731 61.68 292.307 62.24 290.931 62.24C289.875 62.24 288.899 61.888 288.003 61.184C287.139 60.448 286.483 59.456 286.035 58.208C284.371 60.896 282.275 62.24 279.747 62.24ZM281.475 57.392C282.179 57.392 282.851 56.976 283.491 56.144C284.131 55.312 284.595 54.208 284.883 52.832L286.659 44C285.315 44.032 284.067 44.544 282.915 45.536C281.795 46.496 280.899 47.776 280.227 49.376C279.555 50.976 279.219 52.672 279.219 54.464C279.219 55.456 279.411 56.192 279.795 56.672C280.211 57.152 280.771 57.392 281.475 57.392ZM320.966 51.392C321.382 51.392 321.702 51.6 321.926 52.016C322.182 52.4 322.31 52.896 322.31 53.504C322.31 54.24 322.198 54.816 321.974 55.232C321.75 55.648 321.398 56.016 320.918 56.336C318.166 58.192 316.15 59.568 314.87 60.464L311.798 62.528C310.582 69.152 308.982 74.352 306.998 78.128C305.046 81.936 302.55 83.84 299.51 83.84C297.878 83.84 296.55 83.328 295.526 82.304C294.502 81.312 293.99 80 293.99 78.368C293.99 76.096 294.886 73.648 296.678 71.024C298.47 68.432 301.83 65.232 306.758 61.424L307.046 59.552C306.502 60.416 305.782 61.088 304.886 61.568C304.022 62.016 303.158 62.24 302.294 62.24C300.31 62.24 298.726 61.52 297.542 60.08C296.358 58.64 295.766 56.752 295.766 54.416C295.766 51.856 296.358 49.44 297.542 47.168C298.726 44.864 300.294 43.024 302.246 41.648C304.23 40.24 306.326 39.536 308.534 39.536C309.238 39.536 309.702 39.68 309.926 39.968C310.182 40.224 310.39 40.704 310.55 41.408C311.158 41.28 311.862 41.216 312.662 41.216C313.462 41.216 314.022 41.344 314.342 41.6C314.694 41.824 314.87 42.288 314.87 42.992C314.87 43.376 314.854 43.68 314.822 43.904C314.694 44.896 314.294 47.408 313.622 51.44C313.494 52.208 313.35 53.056 313.19 53.984C313.062 54.88 312.918 55.84 312.758 56.864C315.222 54.944 317.59 53.248 319.862 51.776C320.278 51.52 320.646 51.392 320.966 51.392ZM304.022 57.392C304.758 57.392 305.462 56.944 306.134 56.048C306.806 55.152 307.286 53.872 307.574 52.208L309.11 44C307.798 44.032 306.582 44.544 305.462 45.536C304.342 46.496 303.446 47.776 302.774 49.376C302.102 50.976 301.766 52.672 301.766 54.464C301.766 55.456 301.958 56.192 302.342 56.672C302.758 57.152 303.318 57.392 304.022 57.392ZM300.038 79.184C300.838 79.184 301.734 78.224 302.726 76.304C303.75 74.384 304.726 71.328 305.654 67.136C303.19 69.248 301.414 71.152 300.326 72.848C299.238 74.544 298.694 76.032 298.694 77.312C298.694 77.856 298.79 78.304 298.982 78.656C299.206 79.008 299.558 79.184 300.038 79.184ZM340.767 51.296C341.183 51.296 341.503 51.488 341.727 51.872C341.983 52.256 342.111 52.784 342.111 53.456C342.111 54.736 341.807 55.728 341.199 56.432C340.015 57.872 338.335 59.2 336.159 60.416C334.015 61.632 331.711 62.24 329.247 62.24C325.887 62.24 323.279 61.328 321.423 59.504C319.567 57.68 318.639 55.184 318.639 52.016C318.639 49.808 319.103 47.76 320.031 45.872C320.959 43.952 322.239 42.432 323.871 41.312C325.535 40.192 327.407 39.632 329.487 39.632C331.343 39.632 332.831 40.192 333.951 41.312C335.071 42.4 335.631 43.888 335.631 45.776C335.631 47.984 334.831 49.888 333.231 51.488C331.663 53.056 328.991 54.304 325.215 55.232C326.015 56.704 327.535 57.44 329.775 57.44C331.215 57.44 332.847 56.944 334.671 55.952C336.527 54.928 338.127 53.6 339.471 51.968C339.855 51.52 340.287 51.296 340.767 51.296ZM328.671 44.336C327.487 44.336 326.479 45.024 325.647 46.4C324.847 47.776 324.447 49.44 324.447 51.392V51.488C326.335 51.04 327.823 50.368 328.911 49.472C329.999 48.576 330.543 47.536 330.543 46.352C330.543 45.744 330.367 45.264 330.015 44.912C329.695 44.528 329.247 44.336 328.671 44.336ZM357.594 46.208C358.298 46.208 358.89 46.464 359.37 46.976C359.882 47.456 360.138 48.064 360.138 48.8C360.138 49.216 360.042 49.664 359.85 50.144C359.338 51.328 358.618 52.32 357.69 53.12C356.762 53.92 355.738 54.32 354.618 54.32C353.722 54.32 352.954 54 352.314 53.36C351.706 52.72 351.402 51.856 351.402 50.768C351.402 50.16 351.434 49.504 351.498 48.8C351.562 48.288 351.594 47.936 351.594 47.744C351.594 47.488 351.53 47.296 351.402 47.168C351.306 47.04 351.178 46.976 351.018 46.976C350.57 46.976 349.962 47.52 349.194 48.608C348.426 49.664 347.658 51.072 346.89 52.832C346.122 54.592 345.498 56.448 345.018 58.4C344.666 59.936 344.266 60.96 343.818 61.472C343.37 61.984 342.634 62.24 341.61 62.24C340.394 62.24 339.53 61.6 339.018 60.32C338.538 59.04 338.298 56.992 338.298 54.176C338.298 50.016 338.89 46.064 340.074 42.32C340.362 41.392 340.826 40.72 341.466 40.304C342.138 39.856 343.066 39.632 344.25 39.632C344.89 39.632 345.338 39.712 345.594 39.872C345.85 40.032 345.978 40.336 345.978 40.784C345.978 41.296 345.738 42.448 345.258 44.24C344.938 45.52 344.682 46.64 344.49 47.6C344.298 48.56 344.138 49.744 344.01 51.152C345.066 48.4 346.25 46.16 347.562 44.432C348.874 42.704 350.154 41.472 351.402 40.736C352.65 40 353.786 39.632 354.81 39.632C355.738 39.632 356.442 39.904 356.922 40.448C357.434 40.96 357.69 41.728 357.69 42.752C357.69 43.36 357.514 44.512 357.162 46.208H357.594Z" fill="white"/>
<rect y="18" width="48" height="48" rx="4.45161" fill="white"/>
<rect x="8" y="26" width="14" height="32" rx="2" fill="#1976AD"/>
<rect x="26" y="26" width="14" height="20" rx="2" fill="#1976AD"/>
</svg>
