<svg width="20" height="20" viewBox="0 0 20 20" fill="none" xmlns="http://www.w3.org/2000/svg">
<mask id="mask0_815_1516" style="mask-type:alpha" maskUnits="userSpaceOnUse" x="2" y="2" width="16" height="16">
<path fill-rule="evenodd" clip-rule="evenodd" d="M12.6553 12.0598H13.3137L16.847 15.6098C17.1887 15.9514 17.1887 16.5098 16.847 16.8514C16.5053 17.1931 15.947 17.1931 15.6053 16.8514L12.0637 13.3098V12.6514L11.8387 12.4181C10.672 13.4181 9.08034 13.9348 7.38867 13.6514C5.07201 13.2598 3.22201 11.3264 2.93867 8.9931C2.50534 5.4681 5.47201 2.50143 8.99701 2.93477C11.3303 3.2181 13.2637 5.0681 13.6553 7.38477C13.9387 9.07643 13.422 10.6681 12.422 11.8348L12.6553 12.0598ZM4.56367 8.30977C4.56367 10.3848 6.23867 12.0598 8.31367 12.0598C10.3887 12.0598 12.0637 10.3848 12.0637 8.30977C12.0637 6.23477 10.3887 4.55977 8.31367 4.55977C6.23867 4.55977 4.56367 6.23477 4.56367 8.30977Z" fill="#0F172A"/>
</mask>
<g mask="url(#mask0_815_1516)">
<rect width="20" height="20" fill="white"/>
</g>
</svg>
