<svg width="485" height="294" viewBox="0 0 485 294" fill="none" xmlns="http://www.w3.org/2000/svg">
<g clip-path="url(#clip0_20_3711)">
<path d="M484.777 294H0V292.772H485L484.777 294Z" fill="#3F3D56"/>
<path d="M423.306 98.7224L411.038 122.945L374.358 139.577C370.441 146.18 357.994 146.685 357.089 142.416C356.073 137.626 372.204 129.916 372.204 129.916L402.884 109.218L405.568 91.4004L423.306 98.7224Z" fill="#A0616A"/>
<path d="M421.859 261.277L424.121 279.329L411 280.232L409.643 261.277H421.859Z" fill="#A0616A"/>
<path d="M420.05 276.622C421.223 275.384 422.305 274.064 423.287 272.672C425.168 270.077 426.837 283.391 426.837 283.391C426.837 283.391 428.646 288.807 428.194 291.514C427.741 294.222 417.335 294.222 415.525 293.771C413.715 293.319 404.666 293.771 404.666 293.771H391.092C379.328 288.355 391.092 284.745 391.092 284.745C394.711 284.294 406.928 273.011 406.928 273.011L409.643 268.047C411.453 267.596 413.263 274.365 413.263 274.365L420.05 276.622Z" fill="#2F2E41"/>
<path d="M455.793 261.503L458.056 279.555L444.934 280.458L443.576 261.503H455.793Z" fill="#A0616A"/>
<path d="M453.983 276.847C455.156 275.61 456.238 274.29 457.221 272.898C459.102 270.302 460.77 283.617 460.77 283.617C460.77 283.617 462.58 288.581 462.128 291.289C461.675 293.996 451.268 293.996 449.459 293.545C447.649 293.094 438.599 293.996 438.599 293.996H425.025C413.261 288.581 425.025 284.97 425.025 284.97C428.645 284.519 440.862 273.237 440.862 273.237L443.576 268.273C445.386 267.821 447.196 274.591 447.196 274.591L453.983 276.847Z" fill="#2F2E41"/>
<path d="M440.863 145.069C442.673 147.326 441.768 154.998 441.768 154.998C441.768 154.998 444.935 179.819 443.578 182.076C442.22 184.332 444.483 186.137 445.84 189.296C447.198 192.455 448.555 200.127 448.555 200.127C456.247 206.445 455.794 235.328 455.794 235.328L458.509 261.052C457.604 263.76 444.935 264.211 443.125 263.76C441.315 263.309 435.886 222.692 435.886 222.692L423.669 199.676C423.669 199.676 424.574 261.052 424.574 263.76C424.574 266.468 412.358 265.114 409.643 265.114C406.928 265.114 406.928 219.984 406.928 219.984L404.213 208.251L389.734 154.546V148.228L391.997 145.069C391.997 145.069 439.053 142.813 440.863 145.069Z" fill="#2F2E41"/>
<path d="M420.954 42.6258C428.701 42.6258 434.981 36.3622 434.981 28.6357C434.981 20.9091 428.701 14.6455 420.954 14.6455C413.208 14.6455 406.928 20.9091 406.928 28.6357C406.928 36.3622 413.208 42.6258 420.954 42.6258Z" fill="#A0616A"/>
<path d="M413.939 35.1797C416.782 41.4944 415.098 50.3145 409.414 60.0009L432.49 49.1699L428.87 46.0108L429.775 36.9849L413.939 35.1797Z" fill="#A0616A"/>
<path d="M413.94 49.6202C410.918 51.412 409.11 54.7042 408.073 58.0544C406.151 64.2568 404.995 70.6695 404.629 77.1509L403.533 96.5549L389.959 148.003C401.723 157.931 408.51 155.675 424.346 147.551C440.183 139.428 441.993 150.259 441.993 150.259C441.993 150.259 443.35 149.808 441.993 148.454C440.635 147.1 441.993 148.454 443.35 147.1C444.707 145.746 443.35 147.1 442.897 145.746C442.445 144.392 442.897 145.295 443.35 144.843C443.802 144.392 441.54 140.33 441.54 140.33L445.16 106.483L449.684 58.646C444.255 51.8766 428.871 46.0098 428.871 46.0098L414.845 55.9382C410.32 57.7434 413.94 50.5227 413.94 50.5227V49.6202Z" fill="#1976AD"/>
<path d="M457.15 87.3037L458.96 114.381L435.884 147.326C435.884 154.998 431.812 156.803 431.812 156.803C430.27 154.348 428.909 151.784 427.74 149.131C425.478 144.167 429.097 140.105 429.097 140.105L444.934 106.709L438.147 90.0115L457.15 87.3037Z" fill="#A0616A"/>
<path d="M449.461 58.8722C457.153 61.58 458.51 90.9142 458.51 90.9142C449.461 85.9499 438.601 94.0732 438.601 94.0732C438.601 94.0732 436.339 86.4012 433.624 76.4727C432.805 73.68 432.707 70.7258 433.34 67.8851C433.972 65.0445 435.316 62.4097 437.244 60.2261C437.244 60.2261 441.769 56.1644 449.461 58.8722Z" fill="#1976AD"/>
<path d="M433.85 32.9225C432.064 31.4977 429.628 34.0876 429.628 34.0876L428.2 21.2643C428.2 21.2643 419.272 22.333 413.558 20.9081C407.844 19.4833 406.951 26.0731 406.951 26.0731C406.656 23.4119 406.596 20.7301 406.772 18.0585C407.129 14.8527 411.772 11.6469 419.986 9.50965C428.2 7.37245 432.485 16.6337 432.485 16.6337C438.199 19.4833 435.636 34.3473 433.85 32.9225Z" fill="#2F2E41"/>
<path d="M22.7988 221.23C24.341 227.336 37.4906 241.068 51.0592 253.962C30.1353 202.413 42.0585 145.998 42.0585 145.998C38.1734 168.155 91.4196 279.655 91.4196 279.655L79.292 286.788L75.1951 292.538C34.1261 273.725 22.7988 221.23 22.7988 221.23Z" fill="#E6E6E6"/>
<path d="M376.645 106.924H205.115V140.702H376.645V106.924Z" fill="#E6E6E6"/>
<path d="M376.645 53.5498H205.115V87.3283H376.645V53.5498Z" fill="#E6E6E6"/>
<path d="M376.645 0H205.115V33.7785H376.645V0Z" fill="#E6E6E6"/>
<path d="M208.771 30.1313H372.988V3.64746H208.771V30.1313Z" fill="white"/>
<path d="M208.771 83.7983H372.988V57.3145H208.771V83.7983Z" fill="white"/>
<path d="M208.771 137.054H372.988V110.57H208.771V137.054Z" fill="white"/>
<path d="M223.149 26.7595C228.736 26.7595 233.265 22.2421 233.265 16.6698C233.265 11.0974 228.736 6.58008 223.149 6.58008C217.562 6.58008 213.033 11.0974 213.033 16.6698C213.033 22.2421 217.562 26.7595 223.149 26.7595Z" fill="#1976AD"/>
<path d="M347.177 12.7217H247.338V14.9151H347.177V12.7217Z" fill="#1976AD"/>
<path d="M347.177 18.4248H247.338V20.6182H347.177V18.4248Z" fill="#1976AD"/>
<path d="M223.149 80.7477C228.736 80.7477 233.265 76.2304 233.265 70.658C233.265 65.0857 228.736 60.5684 223.149 60.5684C217.562 60.5684 213.033 65.0857 213.033 70.658C213.033 76.2304 217.562 80.7477 223.149 80.7477Z" fill="#CCCCCC"/>
<path d="M347.177 66.71H247.338V68.9034H347.177V66.71Z" fill="#CCCCCC"/>
<path d="M347.177 72.4131H247.338V74.6065H347.177V72.4131Z" fill="#CCCCCC"/>
<path d="M223.149 134.122C228.736 134.122 233.265 129.604 233.265 124.032C233.265 118.46 228.736 113.942 223.149 113.942C217.562 113.942 213.033 118.46 213.033 124.032C213.033 129.604 217.562 134.122 223.149 134.122Z" fill="#CCCCCC"/>
<path d="M347.177 120.084H247.338V122.277H347.177V120.084Z" fill="#CCCCCC"/>
<path d="M347.177 125.787H247.338V127.981H347.177V125.787Z" fill="#CCCCCC"/>
<path d="M78.6511 97.4376C78.6511 97.4376 76.286 112.265 86.0842 110.917C86.0842 110.917 124.939 102.156 126.966 104.177C128.993 106.199 141.596 106.888 140.939 98.3633C140.279 89.8101 127.642 94.7417 127.642 94.7417C127.642 94.7417 108.046 97.4376 103.991 95.4156C99.9368 93.3937 88.4493 94.0676 88.4493 94.0676L78.6511 97.4376Z" fill="#A0616A"/>
<path d="M108.302 145.792L102.914 196.778C102.914 196.778 101.225 216.997 96.1571 221.378C96.1571 221.378 96.1571 227.781 94.4678 229.803L92.1027 256.425C92.1027 256.425 95.4814 266.198 95.1435 267.883C94.8056 269.568 96.495 274.96 96.1571 275.634C95.8192 276.308 79.9395 275.634 79.9395 275.634L83.3181 221.378L93.7921 145.892L108.302 145.792Z" fill="#2F2E41"/>
<path d="M78.7012 272.877C78.7012 272.877 71.6154 290.699 75.3123 292.85C79.0092 295.001 117.827 293.465 117.827 293.465C117.827 293.465 124.296 289.47 116.902 286.705C116.902 286.705 110.741 286.397 106.736 283.939C102.731 281.481 98.1099 276.872 98.1099 276.872C98.1099 276.872 97.8018 270.112 95.3372 271.648C94.5999 272.133 93.9723 272.766 93.4948 273.507C93.0172 274.247 92.7004 275.08 92.5646 275.95L78.7012 272.877Z" fill="#2F2E41"/>
<path d="M67.7767 270.461C67.7767 270.461 60.0058 290.007 64.0602 292.366C68.1146 294.725 110.686 293.04 110.686 293.04C110.686 293.04 117.781 288.659 109.672 285.626C109.672 285.626 102.915 285.289 98.5227 282.593C94.1304 279.897 89.0624 274.842 89.0624 274.842C89.0624 274.842 88.7246 267.428 86.0216 269.113C85.2129 269.645 84.5246 270.339 84.0009 271.152C83.4772 271.964 83.1298 272.877 82.9808 273.831L67.7767 270.461Z" fill="#2F2E41"/>
<path d="M99.1976 145.1C99.1976 145.1 95.481 179.81 93.7917 187.224C92.7295 192.106 92.0517 197.064 91.7645 202.052C91.7645 202.052 91.4266 212.835 88.3858 215.868C87.4961 216.747 86.7971 217.799 86.3321 218.958C85.8671 220.118 85.6461 221.36 85.6828 222.608C85.6828 222.608 82.642 256.645 84.3313 260.689C86.0207 264.732 88.314 269.986 86.6247 272.682C84.9354 275.378 65.7486 273.494 65.7486 271.472C65.7486 269.45 65.7486 267.765 64.735 266.754C63.7214 265.743 64.735 259.341 64.735 259.341C64.735 259.341 60.6806 229.348 64.3972 220.586C68.1137 211.824 69.803 187.898 69.803 187.898C69.803 187.898 67.1001 160.601 63.7214 156.221C60.3427 151.84 64.3972 136.338 64.3972 136.338L99.1976 145.1Z" fill="#2F2E41"/>
<path d="M89.6855 37.3086C90.0783 38.201 91.0185 38.6979 91.8744 39.1682C96.8349 41.894 100.987 45.846 105.078 49.7524C104.057 46.3021 104.275 42.6047 105.693 39.2971C106.182 38.1689 106.822 36.9562 106.473 35.7777C106.128 34.9353 105.529 34.2207 104.759 33.7331C103.09 32.4455 101.345 31.2582 99.5345 30.1776C98.2694 29.4227 95.6685 27.4131 94.2167 27.6318C94.1405 29.5882 94.1007 31.3373 93.2418 33.1658C93.038 33.5996 89.8357 37.6498 89.6855 37.3086Z" fill="#A0616A"/>
<path d="M106.97 41.6423C114.62 41.6423 120.822 35.4563 120.822 27.8255C120.822 20.1948 114.62 14.0088 106.97 14.0088C99.3192 14.0088 93.1172 20.1948 93.1172 27.8255C93.1172 35.4563 99.3192 41.6423 106.97 41.6423Z" fill="#A0616A"/>
<path d="M107.643 60.5134C107.643 60.5134 110.008 48.7186 103.251 44.6747C96.4935 40.6308 88.7225 35.9129 88.7225 35.9129C88.7225 35.9129 86.3574 35.5759 85.3438 40.6308C85.3438 40.6308 66.0853 44.3377 64.0581 62.5354C62.0309 80.7331 65.4096 107.356 65.4096 107.356C65.4096 107.356 62.3688 130.608 58.6522 143.077C58.6522 143.077 55.6114 145.773 69.1262 141.729C82.6409 137.685 106.292 153.187 106.292 153.187C106.292 153.187 108.657 150.828 108.657 149.143C108.657 147.458 113.725 96.2347 114.738 91.5168C115.752 86.7989 110.684 61.1874 107.643 60.5134Z" fill="#4E97C2"/>
<path d="M103.705 29.2493C104.538 28.7892 105.471 28.5413 106.422 28.5276C107.375 28.5134 108.305 28.237 109.11 27.7289C110.418 26.7269 110.514 24.7905 111.472 23.4504C112.857 21.5103 115.622 21.2768 118.009 21.3739C119.468 21.4332 121.04 21.5202 122.269 20.7328C123.531 19.9245 124.103 18.4014 124.528 16.9671C125.032 15.2709 125.357 13.1967 124.11 11.9387C123.244 11.0652 121.878 10.8924 120.916 10.1252C120.396 9.71004 113.515 8.0428 107.056 6.5437C103.84 5.79855 100.462 6.25439 97.5607 7.82503C94.6592 9.39566 92.4352 11.9722 91.3093 15.0675C89.8178 19.1581 88.5396 23.0017 88.6715 23.8319C89.3029 27.8052 92.8259 30.9634 93.0687 34.979C93.3 33.8702 93.8038 32.836 94.5346 31.9691C95.2655 31.1023 96.2007 30.43 97.2562 30.0124C97.5209 29.8833 97.8215 29.847 98.1094 29.9092C98.4594 30.0208 98.664 30.3696 98.8849 30.6625C99.4637 31.4299 101.282 32.5942 102.312 32.0498C103.234 31.5626 102.546 30.0335 103.705 29.2493Z" fill="#3F3D56"/>
<path d="M110.038 101.89C109.748 102.174 109.582 102.56 109.576 102.965C109.57 103.37 109.725 103.761 110.007 104.053L119.747 114.109C119.889 114.255 120.059 114.372 120.246 114.452C120.433 114.532 120.634 114.575 120.838 114.577C121.042 114.579 121.244 114.54 121.433 114.463C121.622 114.387 121.794 114.273 121.938 114.13L151.662 84.6113C151.824 84.4501 151.948 84.2546 152.025 84.0393C152.102 83.824 152.13 83.5943 152.106 83.367C152.083 83.1396 152.009 82.9204 151.889 82.7254C151.77 82.5303 151.608 82.3644 151.416 82.2396L139.728 74.6465C139.436 74.4547 139.086 74.3687 138.738 74.4028C138.39 74.437 138.064 74.5894 137.815 74.8344L110.038 101.89Z" fill="#3F3D56"/>
<path d="M151.867 82.6885C151.808 82.7788 151.74 82.8627 151.663 82.9388L122.009 113.015C121.865 113.158 121.693 113.272 121.504 113.349C121.316 113.425 121.113 113.464 120.91 113.462C120.706 113.46 120.504 113.417 120.317 113.337C120.13 113.257 119.96 113.14 119.819 112.994L109.868 102.52C109.8 102.45 109.739 102.373 109.686 102.291C109.52 102.575 109.461 102.909 109.52 103.232C109.579 103.555 109.752 103.846 110.008 104.054L119.749 114.109C119.891 114.255 120.06 114.372 120.247 114.452C120.434 114.533 120.636 114.575 120.84 114.577C121.044 114.579 121.246 114.541 121.435 114.464C121.623 114.387 121.795 114.274 121.939 114.13L151.663 84.6118C151.913 84.3632 152.07 84.0364 152.107 83.6862C152.144 83.336 152.06 82.9837 151.867 82.6885H151.867Z" fill="#6C63FF"/>
<path d="M149.116 83.0526L147.906 82.2834C148.034 82.5098 148.081 82.7727 148.039 83.029C147.998 83.2854 147.87 83.5202 147.678 83.6952C147.486 83.8702 147.24 83.9751 146.98 83.9928C146.72 84.0105 146.462 83.9399 146.248 83.7927L138.42 78.4253C138.242 78.3035 138.102 78.1342 138.016 77.9369C137.93 77.7396 137.901 77.522 137.933 77.3091C137.965 77.0962 138.056 76.8965 138.196 76.7327C138.336 76.5689 138.519 76.4477 138.725 76.3828L138.102 75.9865C138.021 75.9351 137.925 75.9128 137.829 75.9235C137.734 75.9342 137.645 75.9771 137.578 76.0452L111.246 101.855C111.207 101.895 111.176 101.942 111.155 101.994C111.134 102.046 111.124 102.101 111.125 102.157C111.126 102.212 111.138 102.267 111.161 102.318C111.183 102.369 111.216 102.415 111.257 102.454L120.82 111.748C120.899 111.822 121.004 111.863 121.113 111.862C121.222 111.86 121.326 111.816 121.403 111.74L149.187 83.7015C149.231 83.6573 149.265 83.6036 149.286 83.5446C149.307 83.4855 149.314 83.4225 149.307 83.3602C149.301 83.2979 149.28 83.2379 149.247 83.1847C149.214 83.1314 149.169 83.0863 149.116 83.0526Z" fill="white"/>
<path d="M118.723 96.1557L126.801 103.752L146.014 84.8185L136.263 78.4883L118.723 96.1557Z" fill="#E6E6E6"/>
<path d="M145.269 89.4909C145.322 89.5416 145.393 89.5699 145.467 89.5699C145.54 89.5699 145.611 89.5416 145.665 89.4909L147.345 87.8151C147.397 87.7627 147.426 87.6918 147.426 87.6179C147.426 87.544 147.397 87.4731 147.345 87.4208C147.292 87.3701 147.221 87.3418 147.147 87.3418C147.073 87.3418 147.003 87.3701 146.949 87.4208L145.269 89.0966C145.217 89.149 145.188 89.2199 145.188 89.2938C145.188 89.3677 145.217 89.4386 145.269 89.4909Z" fill="#3F3D56"/>
<path d="M142.437 92.3143C142.49 92.3665 142.561 92.3958 142.635 92.3958C142.709 92.3958 142.78 92.3665 142.833 92.3143L144.513 90.6384C144.565 90.5861 144.594 90.5153 144.594 90.4415C144.594 90.3677 144.564 90.2969 144.512 90.2447C144.46 90.1926 144.389 90.1632 144.315 90.1631C144.241 90.163 144.17 90.1921 144.117 90.2441L142.437 91.92C142.385 91.9723 142.355 92.0433 142.355 92.1172C142.355 92.1911 142.385 92.262 142.437 92.3143Z" fill="#3F3D56"/>
<path d="M118.908 104.558C119.951 104.558 120.795 103.715 120.795 102.676C120.795 101.637 119.951 100.794 118.908 100.794C117.866 100.794 117.021 101.637 117.021 102.676C117.021 103.715 117.866 104.558 118.908 104.558Z" fill="#6C63FF"/>
<path d="M68.7898 92.1915C68.7898 92.1915 66.4247 107.019 76.2229 105.671C76.2229 105.671 115.078 96.9094 117.105 98.9314C119.132 100.953 131.735 101.642 131.078 93.1172C130.418 84.564 117.781 89.4956 117.781 89.4956C117.781 89.4956 98.1843 92.1915 94.1299 90.1695C90.0755 88.1476 78.588 88.8215 78.588 88.8215L68.7898 92.1915Z" fill="#A0616A"/>
<path d="M82.6435 45.3496C82.6435 45.3496 67.4395 47.0346 67.4395 68.9392V96.9096L86.0222 89.1588C86.0222 89.1588 93.7931 70.9611 93.1174 65.9062C92.4417 60.8513 92.7795 46.0236 82.6435 45.3496Z" fill="#4E97C2"/>
</g>
<defs>
<clipPath id="clip0_20_3711">
<rect width="485" height="294" fill="white"/>
</clipPath>
</defs>
</svg>
